<?xml version="1.0" standalone="no"?>
<!DOCTYPE svg PUBLIC "-//W3C//DTD SVG 20010904//EN"
 "http://www.w3.org/TR/2001/REC-SVG-20010904/DTD/svg10.dtd">
<svg version="1.0" xmlns="http://www.w3.org/2000/svg"
 width="64.000000pt" height="64.000000pt" viewBox="0 0 64.000000 64.000000"
 preserveAspectRatio="xMidYMid meet">

<g transform="translate(0.000000,64.000000) scale(0.100000,-0.100000)"
fill="#000000" stroke="none">
<path d="M275 443 c-66 -75 -126 -145 -133 -155 -23 -32 1 -48 69 -48 33 0 59
-2 59 -4 0 -2 -16 -38 -35 -81 -36 -78 -37 -95 -6 -95 14 0 192 193 270 293
23 30 -2 47 -71 47 -68 0 -68 0 -22 92 13 26 24 56 24 68 0 45 -39 16 -155
-117z m145 113 c0 -3 -18 -42 -40 -88 l-41 -83 76 -3 c41 -2 75 -6 75 -11 0
-13 -241 -286 -256 -289 -19 -5 -19 -5 26 92 l39 86 -74 0 c-41 0 -75 4 -75 9
0 14 244 291 258 291 6 0 12 -2 12 -4z"/>
</g>
</svg>
